<svg xmlns="http://www.w3.org/2000/svg" xmlns:xlink="http://www.w3.org/1999/xlink" width="640" zoomAndPan="magnify" viewBox="0 0 480 719.999996" height="960" preserveAspectRatio="xMidYMid meet" version="1.0"><defs><clipPath id="f7fb25e3a9"><path d="M 88.457031 40.421875 L 126.121094 40.421875 L 126.121094 78.085938 L 88.457031 78.085938 Z M 88.457031 40.421875 " clip-rule="nonzero"/></clipPath><clipPath id="9a992ac7d5"><path d="M 107.289062 40.421875 L 126.121094 59.253906 L 107.289062 78.085938 L 88.457031 59.253906 L 107.289062 40.421875 " clip-rule="nonzero"/></clipPath><clipPath id="12f417efff"><path d="M 90.496094 42.457031 L 124.082031 42.457031 L 124.082031 76.046875 L 90.496094 76.046875 Z M 90.496094 42.457031 " clip-rule="nonzero"/></clipPath><clipPath id="d05c7a6849"><path d="M 107.289062 42.457031 L 124.082031 59.253906 L 107.289062 76.046875 L 90.496094 59.253906 L 107.289062 42.457031 " clip-rule="nonzero"/></clipPath><clipPath id="e825704dd3"><path d="M 353.878906 40.421875 L 391.542969 40.421875 L 391.542969 78.085938 L 353.878906 78.085938 Z M 353.878906 40.421875 " clip-rule="nonzero"/></clipPath><clipPath id="1fc0d5768d"><path d="M 372.710938 40.421875 L 391.542969 59.253906 L 372.710938 78.085938 L 353.878906 59.253906 L 372.710938 40.421875 " clip-rule="nonzero"/></clipPath><clipPath id="8e2b39b044"><path d="M 355.917969 42.457031 L 389.503906 42.457031 L 389.503906 76.046875 L 355.917969 76.046875 Z M 355.917969 42.457031 " clip-rule="nonzero"/></clipPath><clipPath id="3622ba653b"><path d="M 372.710938 42.457031 L 389.503906 59.253906 L 372.710938 76.046875 L 355.917969 59.253906 L 372.710938 42.457031 " clip-rule="nonzero"/></clipPath><clipPath id="c708175e43"><path d="M 353.875 641.914062 L 391.539062 641.914062 L 391.539062 679.578125 L 353.875 679.578125 Z M 353.875 641.914062 " clip-rule="nonzero"/></clipPath><clipPath id="e0e8cd8d55"><path d="M 372.707031 679.578125 L 353.875 660.746094 L 372.707031 641.914062 L 391.539062 660.746094 L 372.707031 679.578125 " clip-rule="nonzero"/></clipPath><clipPath id="5dc6818708"><path d="M 355.914062 643.953125 L 389.5 643.953125 L 389.5 677.539062 L 355.914062 677.539062 Z M 355.914062 643.953125 " clip-rule="nonzero"/></clipPath><clipPath id="81eec338e2"><path d="M 372.707031 677.539062 L 355.914062 660.746094 L 372.707031 643.953125 L 389.5 660.746094 L 372.707031 677.539062 " clip-rule="nonzero"/></clipPath><clipPath id="bb3b3c4fbf"><path d="M 88.453125 641.914062 L 126.117188 641.914062 L 126.117188 679.578125 L 88.453125 679.578125 Z M 88.453125 641.914062 " clip-rule="nonzero"/></clipPath><clipPath id="4503052758"><path d="M 107.285156 679.578125 L 88.453125 660.746094 L 107.285156 641.914062 L 126.117188 660.746094 L 107.285156 679.578125 " clip-rule="nonzero"/></clipPath><clipPath id="58b8e75d34"><path d="M 90.492188 643.953125 L 124.078125 643.953125 L 124.078125 677.539062 L 90.492188 677.539062 Z M 90.492188 643.953125 " clip-rule="nonzero"/></clipPath><clipPath id="79ec45d890"><path d="M 107.285156 677.539062 L 90.492188 660.746094 L 107.285156 643.953125 L 124.078125 660.746094 L 107.285156 677.539062 " clip-rule="nonzero"/></clipPath></defs><path stroke-linecap="butt" transform="matrix(0.000000000000000046, 0.751056, -0.75, 0.000000000000000046, 240.370096, 0.00386808)" fill="none" stroke-linejoin="miter" d="M 0.0000508275 0.49867 L 99.869833 0.49867 " stroke="#f0e6d2" stroke-width="1" stroke-opacity="1" stroke-miterlimit="4"/><path stroke-linecap="butt" transform="matrix(0.530595, 0.530595, -0.53033, 0.53033, 126.650314, 11.339673)" fill="none" stroke-linejoin="miter" d="M 0.00207343 0.499114 L 124.942804 0.499114 " stroke="#f0e6d2" stroke-width="1" stroke-opacity="1" stroke-miterlimit="4"/><path stroke-linecap="butt" transform="matrix(0.530994, -0.530994, 0.53033, 0.53033, 287.131337, 77.550309)" fill="none" stroke-linejoin="miter" d="M 0.000945206 0.502704 L 124.858952 0.499021 " stroke="#f0e6d2" stroke-width="1" stroke-opacity="1" stroke-miterlimit="4"/><g clip-path="url(#f7fb25e3a9)"><g clip-path="url(#9a992ac7d5)"><path fill="#c8aa6e" d="M 88.457031 40.421875 L 126.121094 40.421875 L 126.121094 78.085938 L 88.457031 78.085938 Z M 88.457031 40.421875 " fill-opacity="1" fill-rule="nonzero"/></g></g><g clip-path="url(#12f417efff)"><g clip-path="url(#d05c7a6849)"><path fill="#0a1428" d="M 90.496094 42.457031 L 124.082031 42.457031 L 124.082031 76.046875 L 90.496094 76.046875 Z M 90.496094 42.457031 " fill-opacity="1" fill-rule="nonzero"/></g></g><g clip-path="url(#e825704dd3)"><g clip-path="url(#1fc0d5768d)"><path fill="#c8aa6e" d="M 353.878906 40.421875 L 391.542969 40.421875 L 391.542969 78.085938 L 353.878906 78.085938 Z M 353.878906 40.421875 " fill-opacity="1" fill-rule="nonzero"/></g></g><g clip-path="url(#8e2b39b044)"><g clip-path="url(#3622ba653b)"><path fill="#0a1428" d="M 355.917969 42.457031 L 389.503906 42.457031 L 389.503906 76.046875 L 355.917969 76.046875 Z M 355.917969 42.457031 " fill-opacity="1" fill-rule="nonzero"/></g></g><path stroke-linecap="butt" transform="matrix(0.000000000000000046, -0.751056, 0.75, 0.000000000000000046, 239.626, 719.995354)" fill="none" stroke-linejoin="miter" d="M -0.000985479 0.498666 L 99.868797 0.498666 " stroke="#f0e6d2" stroke-width="1" stroke-opacity="1" stroke-miterlimit="4"/><path stroke-linecap="butt" transform="matrix(-0.530595, -0.530595, 0.53033, -0.53033, 353.345785, 708.659506)" fill="none" stroke-linejoin="miter" d="M 0.0013054 0.498335 L 124.942036 0.498335 " stroke="#f0e6d2" stroke-width="1" stroke-opacity="1" stroke-miterlimit="4"/><path stroke-linecap="butt" transform="matrix(-0.530994, 0.530994, -0.53033, -0.53033, 192.864734, 642.448933)" fill="none" stroke-linejoin="miter" d="M 0.0016366 0.501968 L 124.859643 0.498285 " stroke="#f0e6d2" stroke-width="1" stroke-opacity="1" stroke-miterlimit="4"/><g clip-path="url(#c708175e43)"><g clip-path="url(#e0e8cd8d55)"><path fill="#c8aa6e" d="M 391.539062 679.578125 L 353.875 679.578125 L 353.875 641.914062 L 391.539062 641.914062 Z M 391.539062 679.578125 " fill-opacity="1" fill-rule="nonzero"/></g></g><g clip-path="url(#5dc6818708)"><g clip-path="url(#81eec338e2)"><path fill="#0a1428" d="M 389.5 677.539062 L 355.914062 677.539062 L 355.914062 643.953125 L 389.5 643.953125 Z M 389.5 677.539062 " fill-opacity="1" fill-rule="nonzero"/></g></g><g clip-path="url(#bb3b3c4fbf)"><g clip-path="url(#4503052758)"><path fill="#c8aa6e" d="M 126.117188 679.578125 L 88.453125 679.578125 L 88.453125 641.914062 L 126.117188 641.914062 Z M 126.117188 679.578125 " fill-opacity="1" fill-rule="nonzero"/></g></g><g clip-path="url(#58b8e75d34)"><g clip-path="url(#79ec45d890)"><path fill="#0a1428" d="M 124.078125 677.539062 L 90.492188 677.539062 L 90.492188 643.953125 L 124.078125 643.953125 Z M 124.078125 677.539062 " fill-opacity="1" fill-rule="nonzero"/></g></g></svg>