<svg xmlns="http://www.w3.org/2000/svg" xmlns:xlink="http://www.w3.org/1999/xlink" width="1920" zoomAndPan="magnify" viewBox="0 0 1440 809.999993" height="1080" preserveAspectRatio="xMidYMid meet" version="1.0"><defs><clipPath id="c0618fcd1c"><path d="M 187.464844 187.503906 L 262.535156 187.503906 L 262.535156 262.574219 L 187.464844 262.574219 Z M 187.464844 187.503906 " clip-rule="nonzero"/></clipPath><clipPath id="ddf5fe469e"><path d="M 225 187.503906 L 262.535156 225.039062 L 225 262.574219 L 187.464844 225.039062 L 225 187.503906 " clip-rule="nonzero"/></clipPath><clipPath id="7ecad27481"><path d="M 191.339844 191.378906 L 258.660156 191.378906 L 258.660156 258.699219 L 191.339844 258.699219 Z M 191.339844 191.378906 " clip-rule="nonzero"/></clipPath><clipPath id="ca44886d6e"><path d="M 225 191.378906 L 258.660156 225.039062 L 225 258.699219 L 191.339844 225.039062 L 225 191.378906 " clip-rule="nonzero"/></clipPath><clipPath id="b4c1c80b3c"><path d="M 1139.925781 187.503906 L 1215 187.503906 L 1215 262.574219 L 1139.925781 262.574219 Z M 1139.925781 187.503906 " clip-rule="nonzero"/></clipPath><clipPath id="02eebd9c4e"><path d="M 1177.464844 187.503906 L 1215 225.039062 L 1177.464844 262.574219 L 1139.925781 225.039062 L 1177.464844 187.503906 " clip-rule="nonzero"/></clipPath><clipPath id="3233ee0fbe"><path d="M 1143.804688 191.378906 L 1211.121094 191.378906 L 1211.121094 258.699219 L 1143.804688 258.699219 Z M 1143.804688 191.378906 " clip-rule="nonzero"/></clipPath><clipPath id="cbe8f77bd3"><path d="M 1177.464844 191.378906 L 1211.121094 225.039062 L 1177.464844 258.699219 L 1143.804688 225.039062 L 1177.464844 191.378906 " clip-rule="nonzero"/></clipPath><clipPath id="644ddb518b"><path d="M 1139.925781 547.414062 L 1215 547.414062 L 1215 622.488281 L 1139.925781 622.488281 Z M 1139.925781 547.414062 " clip-rule="nonzero"/></clipPath><clipPath id="af5367830c"><path d="M 1177.464844 547.414062 L 1215 584.953125 L 1177.464844 622.488281 L 1139.925781 584.953125 L 1177.464844 547.414062 " clip-rule="nonzero"/></clipPath><clipPath id="a650c5fa3a"><path d="M 1143.804688 551.292969 L 1211.121094 551.292969 L 1211.121094 618.609375 L 1143.804688 618.609375 Z M 1143.804688 551.292969 " clip-rule="nonzero"/></clipPath><clipPath id="2d85ca30ca"><path d="M 1177.464844 551.292969 L 1211.121094 584.953125 L 1177.464844 618.609375 L 1143.804688 584.953125 L 1177.464844 551.292969 " clip-rule="nonzero"/></clipPath><clipPath id="6e8e590d30"><path d="M 187.464844 584.953125 L 262.535156 584.953125 L 262.535156 660.023438 L 187.464844 660.023438 Z M 187.464844 584.953125 " clip-rule="nonzero"/></clipPath><clipPath id="c62e113ba9"><path d="M 225 584.953125 L 262.535156 622.488281 L 225 660.023438 L 187.464844 622.488281 L 225 584.953125 " clip-rule="nonzero"/></clipPath><clipPath id="82033f8a06"><path d="M 191.339844 588.828125 L 258.660156 588.828125 L 258.660156 656.148438 L 191.339844 656.148438 Z M 191.339844 588.828125 " clip-rule="nonzero"/></clipPath><clipPath id="bdfca49acc"><path d="M 225 588.828125 L 258.660156 622.488281 L 225 656.148438 L 191.339844 622.488281 L 225 588.828125 " clip-rule="nonzero"/></clipPath></defs><rect x="-144" width="1728" fill="#ffffff" y="-80.999999" height="971.999992" fill-opacity="1"/><rect x="-144" width="1728" fill="#ffffff" y="-80.999999" height="971.999992" fill-opacity="1"/><rect x="-144" width="1728" fill="#0a1428" y="-80.999999" height="971.999992" fill-opacity="1"/><path stroke-linecap="butt" transform="matrix(0.75, 0, 0, 0.75, 75.000002, 403.5)" fill="none" stroke-linejoin="miter" d="M -0.00000326543 2.000001 L 400.000017 2.000001 " stroke="#f0e6d2" stroke-width="4" stroke-opacity="1" stroke-miterlimit="4"/><path stroke-linecap="butt" transform="matrix(0.75, 0, 0, 0.75, 1064.999953, 403.5)" fill="none" stroke-linejoin="miter" d="M 0.000063142 2.000001 L 400.000083 2.000001 " stroke="#f0e6d2" stroke-width="4" stroke-opacity="1" stroke-miterlimit="4"/><path stroke-linecap="butt" transform="matrix(-0.00600059, 0.750023, -0.749976, -0.00600022, 722.24745, 622.514509)" fill="none" stroke-linejoin="miter" d="M 0.0018788 2.001857 L 249.989051 2.001763 " stroke="#f0e6d2" stroke-width="4" stroke-opacity="1" stroke-miterlimit="4"/><path stroke-linecap="butt" transform="matrix(0.000000000000000379, 0.750047, -0.75, 0.000000000000000379, 721.497498, 0.012248)" fill="none" stroke-linejoin="miter" d="M -0.000705638 2.001872 L 249.988892 2.001872 " stroke="#f0e6d2" stroke-width="4" stroke-opacity="1" stroke-miterlimit="4"/><path stroke-linecap="butt" transform="matrix(0.529345, 0.529345, -0.53033, 0.53033, 250.137241, 53.49613)" fill="none" stroke-linejoin="miter" d="M 0.00316222 2.000244 L 235.44321 2.000244 " stroke="#f0e6d2" stroke-width="4" stroke-opacity="1" stroke-miterlimit="4"/><path stroke-linecap="butt" transform="matrix(0.529345, -0.529345, 0.53033, 0.53033, 248.015912, 747.348918)" fill="none" stroke-linejoin="miter" d="M 0.000920957 2.002009 L 235.440969 2.002009 " stroke="#f0e6d2" stroke-width="4" stroke-opacity="1" stroke-miterlimit="4"/><path stroke-linecap="butt" transform="matrix(0.529345, -0.529345, 0.53033, 0.53033, 1064.999377, 185.380381)" fill="none" stroke-linejoin="miter" d="M -0.00170784 1.998984 L 235.44203 2.002667 " stroke="#f0e6d2" stroke-width="4" stroke-opacity="1" stroke-miterlimit="4"/><path stroke-linecap="butt" transform="matrix(0.529345, 0.529345, -0.53033, 0.53033, 1067.120689, 622.489333)" fill="none" stroke-linejoin="miter" d="M -0.000610397 2.002096 L 235.443128 1.998413 " stroke="#f0e6d2" stroke-width="4" stroke-opacity="1" stroke-miterlimit="4"/><g clip-path="url(#c0618fcd1c)"><g clip-path="url(#ddf5fe469e)"><path fill="#c8aa6e" d="M 187.464844 187.503906 L 262.535156 187.503906 L 262.535156 262.574219 L 187.464844 262.574219 Z M 187.464844 187.503906 " fill-opacity="1" fill-rule="nonzero"/></g></g><g clip-path="url(#7ecad27481)"><g clip-path="url(#ca44886d6e)"><path fill="#0a1428" d="M 191.339844 191.378906 L 258.660156 191.378906 L 258.660156 258.699219 L 191.339844 258.699219 Z M 191.339844 191.378906 " fill-opacity="1" fill-rule="nonzero"/><path fill="#0a1428" d="M 191.339844 191.378906 L 258.660156 191.378906 L 258.660156 258.699219 L 191.339844 258.699219 Z M 191.339844 191.378906 " fill-opacity="1" fill-rule="nonzero"/></g></g><g clip-path="url(#b4c1c80b3c)"><g clip-path="url(#02eebd9c4e)"><path fill="#c8aa6e" d="M 1139.925781 187.503906 L 1215 187.503906 L 1215 262.574219 L 1139.925781 262.574219 Z M 1139.925781 187.503906 " fill-opacity="1" fill-rule="nonzero"/></g></g><g clip-path="url(#3233ee0fbe)"><g clip-path="url(#cbe8f77bd3)"><path fill="#0a1428" d="M 1143.804688 191.378906 L 1211.121094 191.378906 L 1211.121094 258.699219 L 1143.804688 258.699219 Z M 1143.804688 191.378906 " fill-opacity="1" fill-rule="nonzero"/><path fill="#0a1428" d="M 1143.804688 191.378906 L 1211.121094 191.378906 L 1211.121094 258.699219 L 1143.804688 258.699219 Z M 1143.804688 191.378906 " fill-opacity="1" fill-rule="nonzero"/></g></g><g clip-path="url(#644ddb518b)"><g clip-path="url(#af5367830c)"><path fill="#c8aa6e" d="M 1139.925781 547.414062 L 1215 547.414062 L 1215 622.488281 L 1139.925781 622.488281 Z M 1139.925781 547.414062 " fill-opacity="1" fill-rule="nonzero"/></g></g><g clip-path="url(#a650c5fa3a)"><g clip-path="url(#2d85ca30ca)"><path fill="#0a1428" d="M 1143.804688 551.292969 L 1211.121094 551.292969 L 1211.121094 618.609375 L 1143.804688 618.609375 Z M 1143.804688 551.292969 " fill-opacity="1" fill-rule="nonzero"/><path fill="#0a1428" d="M 1143.804688 551.292969 L 1211.121094 551.292969 L 1211.121094 618.609375 L 1143.804688 618.609375 Z M 1143.804688 551.292969 " fill-opacity="1" fill-rule="nonzero"/></g></g><g clip-path="url(#6e8e590d30)"><g clip-path="url(#c62e113ba9)"><path fill="#c8aa6e" d="M 187.464844 584.953125 L 262.535156 584.953125 L 262.535156 660.023438 L 187.464844 660.023438 Z M 187.464844 584.953125 " fill-opacity="1" fill-rule="nonzero"/></g></g><g clip-path="url(#82033f8a06)"><g clip-path="url(#bdfca49acc)"><path fill="#0a1428" d="M 191.339844 588.828125 L 258.660156 588.828125 L 258.660156 656.148438 L 191.339844 656.148438 Z M 191.339844 588.828125 " fill-opacity="1" fill-rule="nonzero"/><path fill="#0a1428" d="M 191.339844 588.828125 L 258.660156 588.828125 L 258.660156 656.148438 L 191.339844 656.148438 Z M 191.339844 588.828125 " fill-opacity="1" fill-rule="nonzero"/></g></g></svg>